<svg width="40" height="40" viewBox="0 0 40 40" fill="none" xmlns="http://www.w3.org/2000/svg">
<path d="M19.9959 40.0002C9.01388 40.1123 -0.0312792 30.9615 -0.000164104 19.9535C0.030951 8.97191 9.12434 -0.0449779 20.1189 0.000168799C30.9578 0.0437587 40.0263 9.10113 39.9983 20.036C39.9703 30.9428 31.0138 40.1138 19.9944 40.0002H19.9959ZM7.61059 19.8616C7.61059 22.0909 7.63237 24.3218 7.59814 26.5496C7.58725 27.2127 7.76149 27.4649 8.46625 27.4525C10.6676 27.412 12.8706 27.4354 15.072 27.4369C15.699 27.4369 16.3119 27.3342 16.9124 27.1769C18.8509 26.6663 20.024 25.4053 20.2169 23.5247C20.4051 21.6971 19.7766 20.2664 18.003 19.4895C17.4056 19.228 17.653 19.0303 18.0295 18.7812C19.3441 17.9172 19.6521 16.6142 19.4639 15.1695C19.2912 13.8446 18.3966 13.0865 17.2018 12.6459C16.6168 12.4295 16.007 12.2925 15.38 12.291C13.0479 12.2847 10.7159 12.3065 8.38535 12.2754C7.7506 12.2661 7.59192 12.5027 7.59814 13.0958C7.62459 15.3516 7.60903 17.6074 7.60903 19.8616H7.61059ZM28.3192 22.6311C29.1485 22.6311 29.9777 22.6311 30.8053 22.6311C31.9182 22.6311 32.4 22.0769 32.2506 20.9685C31.8601 18.0604 29.2013 15.8934 26.3341 16.1907C23.4279 16.4927 21.197 19.0038 21.3572 22.1392C21.5548 26.0483 24.3676 28.2169 28.2352 27.5786C29.8392 27.3139 31.0636 26.4655 31.7512 24.9461C31.8617 24.7001 32.0686 24.2907 31.6237 24.2767C30.768 24.2502 29.8641 23.9061 29.1111 24.792C28.4126 25.6139 27.4107 25.835 26.3403 25.5594C25.326 25.2979 24.6617 24.669 24.3894 23.6524C24.1794 22.8693 24.3381 22.6467 25.133 22.6374C26.1956 22.6249 27.2567 22.6342 28.3192 22.6327V22.6311ZM26.7868 14.676C27.6145 14.676 28.4421 14.662 29.2682 14.6806C29.7381 14.6915 29.9108 14.4969 29.9045 14.0346C29.8983 13.6049 29.8003 13.3434 29.304 13.3465C27.6752 13.3574 26.0463 13.3605 24.419 13.3449C23.8807 13.3402 23.7842 13.6158 23.7811 14.0782C23.778 14.581 24.0316 14.69 24.461 14.6806C25.2357 14.6666 26.012 14.676 26.7868 14.676Z" fill="#1E1E1E"/>
<path d="M13.2597 25.0365C12.7588 25.0365 12.3698 25.0365 11.9825 25.0365C11.1932 25.0344 10.7975 24.6255 10.7954 23.8097C10.7954 22.98 10.7985 22.1502 10.7985 21.3204C10.7985 20.9421 10.8965 20.6308 11.3446 20.6354C12.6374 20.6495 13.938 20.4907 15.22 20.7429C16.4428 20.9826 17.0915 21.747 17.0838 22.8725C17.0775 23.9389 16.4241 24.6722 15.2386 24.9493C14.5463 25.1112 13.8447 24.9976 13.2597 25.0365Z" fill="#1E1E1E"/>
<path d="M12.9843 18.4902C10.4826 18.4529 10.8125 18.8265 10.8 16.4041C10.7907 14.6839 10.5806 14.7213 12.4849 14.729C13.2877 14.7322 14.092 14.6886 14.887 14.8334C15.8687 15.0124 16.4412 15.6398 16.4676 16.5614C16.4941 17.5157 16.0009 18.1088 14.999 18.3719C14.3082 18.5541 13.6081 18.456 12.9843 18.4902Z" fill="#1E1E1E"/>
<path d="M26.7964 20.8472C26.1772 20.8472 25.5565 20.8394 24.9373 20.8518C24.441 20.8612 24.3041 20.6666 24.4426 20.184C24.7428 19.1347 25.7681 18.3049 26.8337 18.2956C27.9228 18.2863 29.0009 19.1472 29.2825 20.2182C29.4007 20.6666 29.2576 20.8518 28.808 20.8487C28.1375 20.8441 27.4654 20.8487 26.7949 20.8487L26.7964 20.8472Z" fill="#1E1E1E"/>
</svg>
