<svg width="40" height="40" viewBox="0 0 40 40" fill="none" xmlns="http://www.w3.org/2000/svg">
<path d="M19.9959 39.9999C9.01388 40.112 -0.0312792 30.9612 -0.000164104 19.9532C0.030951 8.97161 9.12434 -0.0452831 20.1189 -0.000136376C30.9578 0.0434536 40.0263 9.10082 39.9983 20.0357C39.9703 30.9425 31.0138 40.1135 19.9944 39.9999H19.9959ZM7.61059 19.8613C7.61059 22.0906 7.63237 24.3215 7.59814 26.5493C7.58725 27.2124 7.76149 27.4646 8.46625 27.4522C10.6676 27.4117 12.8706 27.4351 15.072 27.4366C15.699 27.4366 16.3119 27.3339 16.9124 27.1766C18.8509 26.666 20.024 25.405 20.2169 23.5244C20.4051 21.6968 19.7766 20.2661 18.003 19.4892C17.4056 19.2277 17.653 19.03 18.0295 18.7809C19.3441 17.9169 19.6521 16.6139 19.4639 15.1692C19.2912 13.8443 18.3966 13.0862 17.2018 12.6456C16.6168 12.4292 16.007 12.2922 15.38 12.2907C13.0479 12.2844 10.7159 12.3062 8.38535 12.2751C7.7506 12.2658 7.59192 12.5024 7.59814 13.0955C7.62459 15.3513 7.60903 17.6071 7.60903 19.8613H7.61059ZM28.3192 22.6308C29.1485 22.6308 29.9777 22.6308 30.8053 22.6308C31.9182 22.6308 32.4 22.0766 32.2506 20.9682C31.8601 18.0601 29.2013 15.8931 26.3341 16.1904C23.4279 16.4924 21.197 19.0035 21.3572 22.1389C21.5548 26.048 24.3676 28.2166 28.2352 27.5783C29.8392 27.3136 31.0636 26.4652 31.7512 24.9458C31.8617 24.6998 32.0686 24.2904 31.6237 24.2763C30.768 24.2499 29.8641 23.9058 29.1111 24.7916C28.4126 25.6136 27.4107 25.8347 26.3403 25.5591C25.326 25.2976 24.6617 24.6687 24.3894 23.6521C24.1794 22.869 24.3381 22.6464 25.133 22.6371C26.1956 22.6246 27.2567 22.6339 28.3192 22.6324V22.6308ZM26.7868 14.6757C27.6145 14.6757 28.4421 14.6617 29.2682 14.6803C29.7381 14.6912 29.9108 14.4966 29.9045 14.0343C29.8983 13.6046 29.8003 13.3431 29.304 13.3462C27.6752 13.3571 26.0463 13.3602 24.419 13.3446C23.8807 13.3399 23.7842 13.6155 23.7811 14.0779C23.778 14.5807 24.0316 14.6897 24.461 14.6803C25.2357 14.6663 26.012 14.6757 26.7868 14.6757Z" fill="#D9D9D9"/>
<path d="M13.2597 25.0362C12.7588 25.0362 12.3698 25.0362 11.9825 25.0362C11.1932 25.0341 10.7975 24.6252 10.7954 23.8095C10.7954 22.9797 10.7985 22.1499 10.7985 21.3202C10.7985 20.9419 10.8965 20.6305 11.3446 20.6352C12.6374 20.6492 13.938 20.4904 15.22 20.7426C16.4428 20.9823 17.0915 21.7467 17.0838 22.8723C17.0775 23.9387 16.4241 24.6719 15.2386 24.949C14.5463 25.1109 13.8447 24.9973 13.2597 25.0362Z" fill="#D9D9D9"/>
<path d="M12.9843 18.4899C10.4826 18.4526 10.8125 18.8262 10.8 16.4038C10.7907 14.6836 10.5806 14.721 12.4849 14.7287C13.2877 14.7319 14.092 14.6883 14.887 14.833C15.8687 15.0121 16.4412 15.6395 16.4676 16.5611C16.4941 17.5154 16.0009 18.1085 14.999 18.3716C14.3082 18.5538 13.6081 18.4557 12.9843 18.4899Z" fill="#D9D9D9"/>
<path d="M26.7964 20.8469C26.1772 20.8469 25.5565 20.8391 24.9373 20.8516C24.441 20.8609 24.3041 20.6663 24.4426 20.1837C24.7428 19.1344 25.7681 18.3047 26.8337 18.2953C27.9228 18.286 29.0009 19.1469 29.2825 20.218C29.4007 20.6663 29.2576 20.8516 28.808 20.8485C28.1375 20.8438 27.4654 20.8485 26.7949 20.8485L26.7964 20.8469Z" fill="#D9D9D9"/>
</svg>
