<svg width="114" height="105" viewBox="0 0 114 105" fill="none" xmlns="http://www.w3.org/2000/svg">
<mask id="path-1-inside-1_312_42" fill="white">
<path fill-rule="evenodd" clip-rule="evenodd" d="M24.1907 13.9701H29.7689V41.1978L54.1529 14.0541L58.0973 18.4449L48.5383 29.0857V75.9957L58.0978 86.637L54.1534 91.0277L29.7689 63.8836V91.0432H24.1907V13.9701ZM42.9978 35.2532V69.8281L29.7689 55.102V49.9793L42.9978 35.2532ZM76.3544 13.9701H70.7762V13.9705V20.18V84.9184V91.0432V91.1279H89.7345V91.0432H89.8095V13.9701H84.2313V13.9705L76.3544 13.9705V13.9701ZM84.2313 84.9184H76.3544V20.18L84.2313 20.18V84.9184ZM66.7805 14.0123H61.2777V91.0434H66.7805V14.0123Z"/>
</mask>
<path fill-rule="evenodd" clip-rule="evenodd" d="M24.1907 13.9701H29.7689V41.1978L54.1529 14.0541L58.0973 18.4449L48.5383 29.0857V75.9957L58.0978 86.637L54.1534 91.0277L29.7689 63.8836V91.0432H24.1907V13.9701ZM42.9978 35.2532V69.8281L29.7689 55.102V49.9793L42.9978 35.2532ZM76.3544 13.9701H70.7762V13.9705V20.18V84.9184V91.0432V91.1279H89.7345V91.0432H89.8095V13.9701H84.2313V13.9705L76.3544 13.9705V13.9701ZM84.2313 84.9184H76.3544V20.18L84.2313 20.18V84.9184ZM66.7805 14.0123H61.2777V91.0434H66.7805V14.0123Z" fill="#D9D9D9"/>
<path d="M29.7689 13.9701H30.3998V13.3391H29.7689V13.9701ZM24.1907 13.9701V13.3391H23.5597V13.9701H24.1907ZM29.7689 41.1978H29.1379V42.8443L30.2382 41.6194L29.7689 41.1978ZM54.1529 14.0541L54.6223 13.6325L54.1529 13.11L53.6836 13.6325L54.1529 14.0541ZM58.0973 18.4449L58.5667 18.8665L58.9455 18.4449L58.5667 18.0232L58.0973 18.4449ZM48.5383 29.0857L48.0689 28.664L47.9074 28.8439V29.0857H48.5383ZM48.5383 75.9957H47.9074V76.2374L48.0689 76.4173L48.5383 75.9957ZM58.0978 86.637L58.5671 87.0586L58.9459 86.637L58.5671 86.2153L58.0978 86.637ZM54.1534 91.0277L53.684 91.4494L54.1534 91.9719L54.6228 91.4494L54.1534 91.0277ZM29.7689 63.8836L30.2382 63.4619L29.1379 62.2371V63.8836H29.7689ZM29.7689 91.0432V91.6741H30.3998V91.0432H29.7689ZM24.1907 91.0432H23.5597V91.6741H24.1907V91.0432ZM42.9978 69.8281L42.5284 70.2498L43.6288 71.4746V69.8281H42.9978ZM42.9978 35.2532H43.6288V33.6067L42.5284 34.8315L42.9978 35.2532ZM29.7689 55.102H29.1379V55.3438L29.2995 55.5237L29.7689 55.102ZM29.7689 49.9793L29.2995 49.5577L29.1379 49.7375V49.9793H29.7689ZM70.7762 13.9701V13.3391H70.1453V13.9701H70.7762ZM76.3544 13.9701H76.9853V13.3391H76.3544V13.9701ZM70.7762 91.1279H70.1453V91.7588H70.7762V91.1279ZM89.7345 91.1279V91.7588H90.3654V91.1279H89.7345ZM89.7345 91.0432V90.4122H89.1035V91.0432H89.7345ZM89.8095 91.0432V91.6741H90.4404V91.0432H89.8095ZM89.8095 13.9701H90.4404V13.3391H89.8095V13.9701ZM84.2313 13.9701V13.3391H83.6003V13.9701H84.2313ZM84.2313 13.9705L84.2313 14.6014L84.8622 14.6014V13.9705H84.2313ZM76.3544 13.9705H75.7234V14.6014L76.3544 14.6014L76.3544 13.9705ZM76.3544 84.9184H75.7234V85.5494H76.3544V84.9184ZM84.2313 84.9184V85.5494H84.8622V84.9184H84.2313ZM76.3544 20.18L76.3544 19.549L75.7234 19.549V20.18H76.3544ZM84.2313 20.18H84.8622V19.549L84.2313 19.549L84.2313 20.18ZM61.2777 14.0123V13.3813H60.6468V14.0123H61.2777ZM66.7805 14.0123H67.4115V13.3813H66.7805V14.0123ZM61.2777 91.0434H60.6468V91.6743H61.2777V91.0434ZM66.7805 91.0434V91.6743H67.4115V91.0434H66.7805ZM29.7689 13.3391H24.1907V14.601H29.7689V13.3391ZM30.3998 41.1978V13.9701H29.1379V41.1978H30.3998ZM53.6836 13.6325L29.2995 40.7761L30.2382 41.6194L54.6223 14.4758L53.6836 13.6325ZM58.5667 18.0232L54.6223 13.6325L53.6836 14.4758L57.6279 18.8665L58.5667 18.0232ZM49.0077 29.5073L58.5667 18.8665L57.6279 18.0232L48.0689 28.664L49.0077 29.5073ZM49.1693 75.9957V29.0857H47.9074V75.9957H49.1693ZM58.5671 86.2153L49.0077 75.574L48.0689 76.4173L57.6284 87.0586L58.5671 86.2153ZM54.6228 91.4494L58.5671 87.0586L57.6284 86.2153L53.684 90.6061L54.6228 91.4494ZM29.2995 64.3052L53.684 91.4494L54.6228 90.6061L30.2382 63.4619L29.2995 64.3052ZM30.3998 91.0432V63.8836H29.1379V91.0432H30.3998ZM24.1907 91.6741H29.7689V90.4122H24.1907V91.6741ZM23.5597 13.9701V91.0432H24.8216V13.9701H23.5597ZM43.6288 69.8281V35.2532H42.3669V69.8281H43.6288ZM29.2995 55.5237L42.5284 70.2498L43.4672 69.4065L30.2382 54.6804L29.2995 55.5237ZM29.1379 49.9793V55.102H30.3998V49.9793H29.1379ZM42.5284 34.8315L29.2995 49.5577L30.2382 50.401L43.4672 35.6749L42.5284 34.8315ZM70.7762 14.601H76.3544V13.3391H70.7762V14.601ZM71.4072 13.9705V13.9701H70.1453V13.9705H71.4072ZM71.4072 20.18V13.9705H70.1453V20.18H71.4072ZM71.4072 84.9184V20.18H70.1453V84.9184H71.4072ZM71.4072 91.0432V84.9184H70.1453V91.0432H71.4072ZM71.4072 91.1279V91.0432H70.1453V91.1279H71.4072ZM89.7345 90.4969H70.7762V91.7588H89.7345V90.4969ZM89.1035 91.0432V91.1279H90.3654V91.0432H89.1035ZM89.8095 90.4122H89.7345V91.6741H89.8095V90.4122ZM89.1785 13.9701V91.0432H90.4404V13.9701H89.1785ZM84.2313 14.601H89.8095V13.3391H84.2313V14.601ZM84.8622 13.9705V13.9701H83.6003V13.9705H84.8622ZM76.3544 14.6014L84.2313 14.6014L84.2313 13.3395L76.3544 13.3395L76.3544 14.6014ZM75.7234 13.9701V13.9705H76.9853V13.9701H75.7234ZM76.3544 85.5494H84.2313V84.2875H76.3544V85.5494ZM75.7234 20.18V84.9184H76.9853V20.18H75.7234ZM84.2313 19.549L76.3544 19.549L76.3544 20.8109L84.2313 20.8109L84.2313 19.549ZM84.8622 84.9184V20.18H83.6003V84.9184H84.8622ZM61.2777 14.6432H66.7805V13.3813H61.2777V14.6432ZM61.9087 91.0434V14.0123H60.6468V91.0434H61.9087ZM66.7805 90.4124H61.2777V91.6743H66.7805V90.4124ZM66.1496 14.0123V91.0434H67.4115V14.0123H66.1496Z" fill="#F9F9F9" mask="url(#path-1-inside-1_312_42)"/>
<path d="M94.8569 3.87524H110V101.042H94.8569" stroke="#F9F9F9" stroke-width="6.30952"/>
<path d="M19.1428 101.042L3.99997 101.042L3.99997 3.87495L19.1428 3.87495" stroke="#F9F9F9" stroke-width="6.30952"/>
</svg>
