<svg width="41" height="40" viewBox="0 0 41 40" fill="none" xmlns="http://www.w3.org/2000/svg">
<path d="M24.2547 29.5841C25.1075 29.4174 25.8098 29.2941 26.5074 29.1435C30.6623 28.2399 33.083 25.4008 33.4622 21.1647C33.6926 18.5949 33.3966 16.2157 31.6751 14.1617C31.5471 14.0095 31.5599 13.6618 31.6223 13.4359C32.0319 11.9684 31.8847 10.5392 31.4655 9.0989C31.2927 8.5061 30.9311 8.26738 30.4144 8.45323C29.12 8.91946 27.8049 9.36806 26.5954 10.0089C25.8578 10.3999 25.2515 10.52 24.4371 10.331C21.6405 9.68529 18.8359 9.78142 16.0344 10.3934C15.6488 10.4784 15.1689 10.3614 14.7881 10.2028C13.489 9.66767 12.241 8.99156 10.9195 8.52533C9.90999 8.16965 9.7084 8.37633 9.40762 9.40972C9.01724 10.7475 8.98205 12.0821 9.33722 13.4375C9.40442 13.6955 9.34362 14.0768 9.18843 14.2883C4.98549 20.008 8.0461 27.9242 14.9977 29.2748C15.5145 29.3758 16.036 29.4495 16.4648 29.52C16.1304 30.3964 15.8184 31.2503 15.4745 32.0914C15.4137 32.2388 15.2345 32.3862 15.0777 32.4391C12.8778 33.1825 11.0219 33.0079 9.6908 30.8866C9.01244 29.8052 8.18209 28.9336 6.92777 28.61C6.475 28.493 5.96623 28.5907 5.48306 28.5907C5.44466 28.6676 5.40626 28.7445 5.36786 28.8198C5.62065 29.1002 5.82543 29.4591 6.13422 29.6449C7.19655 30.2842 7.88611 31.2327 8.29889 32.343C8.98685 34.1855 10.278 35.1419 12.1979 35.2509C13.225 35.3086 14.2585 35.2605 15.3817 35.2605C15.3817 36.5486 15.4265 37.8528 15.3641 39.1505C15.3289 39.8939 14.6409 40.1695 13.7642 39.8699C11.2635 39.0143 8.98845 37.7486 7.02856 35.9719C2.10886 31.5131 -0.2782 25.96 0.0257821 19.3014C0.456156 9.84871 7.79812 1.70015 17.1448 0.258208C28.1649 -1.44168 38.1531 5.40433 40.545 16.2958C42.7208 26.2099 36.8972 36.5486 27.2722 39.8539C26.1394 40.2432 25.5922 39.8587 25.5874 38.6507C25.5794 36.9684 25.5858 35.2861 25.5858 33.6039C25.5858 32.1603 25.3875 30.7777 24.2579 29.5841H24.2547Z" fill="#D9D9D9"/>
</svg>
