<svg width="41" height="40" viewBox="0 0 41 40" fill="none" xmlns="http://www.w3.org/2000/svg">
<path d="M24.2547 29.5844C25.1075 29.4177 25.8098 29.2944 26.5074 29.1438C30.6623 28.2402 33.083 25.4011 33.4622 21.165C33.6926 18.5952 33.3966 16.216 31.6751 14.162C31.5471 14.0098 31.5599 13.6621 31.6223 13.4362C32.0319 11.9687 31.8847 10.5395 31.4655 9.09921C31.2927 8.50641 30.9311 8.26769 30.4144 8.45354C29.12 8.91977 27.8049 9.36837 26.5954 10.0092C25.8578 10.4002 25.2515 10.5203 24.4371 10.3313C21.6405 9.6856 18.8359 9.78172 16.0344 10.3937C15.6488 10.4787 15.1689 10.3617 14.7881 10.2031C13.489 9.66797 12.241 8.99186 10.9195 8.52563C9.90999 8.16996 9.7084 8.37663 9.40762 9.41002C9.01724 10.7478 8.98205 12.0824 9.33722 13.4378C9.40442 13.6958 9.34362 14.0771 9.18843 14.2886C4.98549 20.0083 8.0461 27.9245 14.9977 29.2752C15.5145 29.3761 16.036 29.4498 16.4648 29.5203C16.1304 30.3967 15.8184 31.2506 15.4745 32.0917C15.4137 32.2391 15.2345 32.3865 15.0777 32.4394C12.8778 33.1828 11.0219 33.0082 9.6908 30.8869C9.01244 29.8055 8.18209 28.9339 6.92777 28.6103C6.475 28.4933 5.96623 28.591 5.48306 28.591C5.44466 28.6679 5.40626 28.7448 5.36786 28.8201C5.62065 29.1005 5.82543 29.4594 6.13422 29.6452C7.19655 30.2845 7.88611 31.233 8.29889 32.3433C8.98685 34.1858 10.278 35.1422 12.1979 35.2512C13.225 35.3089 14.2585 35.2608 15.3817 35.2608C15.3817 36.5489 15.4265 37.8531 15.3641 39.1508C15.3289 39.8942 14.6409 40.1698 13.7642 39.8702C11.2635 39.0147 8.98845 37.749 7.02856 35.9722C2.10886 31.5134 -0.2782 25.9603 0.0257821 19.3017C0.456156 9.84902 7.79812 1.70045 17.1448 0.258513C28.1649 -1.44137 38.1531 5.40464 40.545 16.2961C42.7208 26.2102 36.8972 36.5489 27.2722 39.8542C26.1394 40.2435 25.5922 39.859 25.5874 38.651C25.5794 36.9687 25.5858 35.2864 25.5858 33.6042C25.5858 32.1606 25.3875 30.778 24.2579 29.5844H24.2547Z" fill="#1E1E1E"/>
</svg>
