<svg width="53" height="37" viewBox="0 0 53 37" fill="none" xmlns="http://www.w3.org/2000/svg">
<path d="M26.5362 0.214563C34.0686 0.214563 41.6034 0.229125 49.1357 0.202427C50.6906 0.197573 51.8779 0.699973 52.6009 2.13194C52.8693 2.66589 52.8862 3.04208 52.2889 3.43284C43.874 8.9738 35.4687 14.5293 27.0803 20.114C26.425 20.5508 26.0526 20.1989 25.5932 19.8955C17.5965 14.6046 9.5902 9.31844 1.60807 4.00319C1.06399 3.64156 0.123354 3.53235 0.198315 2.58822C0.273276 1.63196 1.51618 0.479112 2.61399 0.292228C3.12421 0.202427 3.65619 0.21699 4.1785 0.21699C11.6311 0.212136 19.0836 0.214563 26.5362 0.214563Z" fill="#D9D9D9"/>
<path d="M26.553 36.7903C19.0206 36.7903 11.4882 36.7806 3.95588 36.7975C2.37444 36.8024 1.11945 36.3194 0.379513 34.8244C0.101432 34.2637 0.186065 33.9045 0.759154 33.5453C7.26625 29.4363 13.7613 25.3103 20.2442 21.1625C20.7931 20.8105 21.1751 20.9076 21.6515 21.2377C22.8122 22.0386 24.0237 22.7668 25.1626 23.5968C26.0863 24.2691 26.906 24.2303 27.8128 23.5871C28.9638 22.7716 30.1753 22.0435 31.3239 21.228C31.8704 20.8397 32.279 20.8712 32.8376 21.228C39.2577 25.3224 45.6874 29.4047 52.1413 33.4458C52.9513 33.953 52.9272 34.4312 52.5258 35.1132C51.8197 36.3146 50.746 36.7951 49.3919 36.7903C46.3717 36.7806 43.3491 36.7903 40.3289 36.7903C35.7369 36.7903 31.1449 36.7903 26.553 36.7903Z" fill="#D9D9D9"/>
<path d="M0.130614 7.02005C6.0888 10.9664 11.8898 14.8085 17.6715 18.6384C17.5772 19.0607 17.2725 19.1262 17.0549 19.2645C11.7181 22.66 6.37414 26.0457 1.0374 29.4412C0.466729 29.8028 -0.00479932 30.2105 3.68733e-05 29.0261C0.0217997 21.91 0.0121274 14.7939 0.0193816 7.67778C0.0193816 7.52245 0.0701617 7.36955 0.133032 7.02005H0.130614Z" fill="#D9D9D9"/>
<path d="M35.1157 18.7597C41.086 14.806 46.8822 10.9664 52.7195 7.1001C53.0652 7.5127 52.9468 7.93015 52.9492 8.30392C52.9564 15.0924 52.9589 21.8833 52.9468 28.6718C52.9468 29.0504 53.1523 29.5649 52.7557 29.7809C52.4172 29.9678 52.1125 29.5455 51.8223 29.361C46.3091 25.8734 40.8055 22.3735 35.1181 18.7597H35.1157Z" fill="#D9D9D9"/>
</svg>
