<svg width="53" height="37" viewBox="0 0 53 37" fill="none" xmlns="http://www.w3.org/2000/svg">
<path d="M26.5362 0.214868C34.0686 0.214868 41.6034 0.22943 49.1357 0.202733C50.6906 0.197878 51.8779 0.700279 52.6009 2.13224C52.8693 2.66619 52.8862 3.04239 52.2889 3.43314C43.874 8.97411 35.4687 14.5296 27.0803 20.1143C26.425 20.5512 26.0526 20.1992 25.5932 19.8958C17.5965 14.6049 9.5902 9.31875 1.60807 4.0035C1.06399 3.64187 0.123354 3.53265 0.198315 2.58853C0.273276 1.63227 1.51618 0.479417 2.61399 0.292534C3.12421 0.202733 3.65619 0.217295 4.1785 0.217295C11.6311 0.212441 19.0836 0.214868 26.5362 0.214868Z" fill="#1E1E1E"/>
<path d="M26.553 36.7906C19.0206 36.7906 11.4882 36.7809 3.95588 36.7979C2.37444 36.8027 1.11945 36.3197 0.379513 34.8247C0.101432 34.264 0.186065 33.9048 0.759154 33.5456C7.26625 29.4366 13.7613 25.3106 20.2442 21.1628C20.7931 20.8109 21.1751 20.9079 21.6515 21.238C22.8122 22.0389 24.0237 22.7671 25.1626 23.5971C26.0863 24.2694 26.906 24.2306 27.8128 23.5874C28.9638 22.7719 30.1753 22.0438 31.3239 21.2283C31.8704 20.84 32.279 20.8715 32.8376 21.2283C39.2577 25.3227 45.6874 29.405 52.1413 33.4461C52.9513 33.9533 52.9272 34.4315 52.5258 35.1135C51.8197 36.3149 50.746 36.7954 49.3919 36.7906C46.3717 36.7809 43.3491 36.7906 40.3289 36.7906C35.7369 36.7906 31.1449 36.7906 26.553 36.7906Z" fill="#1E1E1E"/>
<path d="M0.130614 7.02032C6.0888 10.9667 11.8898 14.8087 17.6715 18.6386C17.5772 19.0609 17.2725 19.1265 17.0549 19.2648C11.7181 22.6603 6.37414 26.046 1.0374 29.4414C0.466729 29.8031 -0.00479932 30.2108 3.68733e-05 29.0264C0.0217997 21.9103 0.0121274 14.7942 0.0193816 7.67806C0.0193816 7.52272 0.0701617 7.36982 0.133032 7.02032H0.130614Z" fill="#1E1E1E"/>
<path d="M35.1157 18.76C41.086 14.8063 46.8822 10.9667 52.7195 7.1004C53.0652 7.513 52.9468 7.93046 52.9492 8.30422C52.9564 15.0927 52.9589 21.8836 52.9468 28.6721C52.9468 29.0507 53.1523 29.5652 52.7557 29.7812C52.4172 29.9681 52.1125 29.5458 51.8223 29.3613C46.3091 25.8737 40.8055 22.3739 35.1181 18.76H35.1157Z" fill="#1E1E1E"/>
</svg>
