<svg width="40" height="40" viewBox="0 0 40 40" fill="none" xmlns="http://www.w3.org/2000/svg">
<path d="M19.9703 40C8.93316 39.9907 -0.0140416 31.0075 1.65437e-05 19.9501C0.0140747 8.916 9.00345 -0.0218281 20.0687 4.00431e-05C31.0981 0.0219082 40.0281 9.02066 40 20.0875C39.9719 31.0794 30.9903 40.0094 19.9703 40ZM31.7354 30.189C31.7354 27.6445 31.751 25.2 31.7276 22.757C31.7182 21.7979 31.7135 20.8232 31.5495 19.8829C31.1684 17.6992 30.0531 16.0357 27.7898 15.4702C25.5249 14.9048 23.4958 15.2921 22.001 17.2868C21.965 17.3352 21.8807 17.3493 21.7057 17.4352V15.6483H16.9432V30.1812H21.7385C21.7385 29.8548 21.7385 29.5752 21.7385 29.294C21.7385 26.951 21.7323 24.608 21.7448 22.265C21.7464 21.8526 21.7729 21.4262 21.8776 21.0294C22.1884 19.8485 23.2896 19.0457 24.4861 19.0769C25.7014 19.1081 26.4699 19.7907 26.7448 21.1419C26.8369 21.5964 26.8713 22.0697 26.8744 22.5352C26.8869 24.8001 26.8807 27.065 26.8807 29.3299C26.8807 29.608 26.8807 29.886 26.8807 30.1922H31.7354V30.189ZM9.37521 30.175H14.1472V15.6561H9.37521V30.175ZM11.7916 8.53019C10.1593 8.5255 9.04094 9.56112 9.04875 11.0685C9.05656 12.5367 10.1797 13.5817 11.7448 13.5802C13.3193 13.5802 14.4783 12.543 14.508 11.1106C14.5392 9.62516 13.3896 8.53331 11.7901 8.52862L11.7916 8.53019Z" fill="#D9D9D9"/>
</svg>
