<svg width="40" height="40" viewBox="0 0 40 40" fill="none" xmlns="http://www.w3.org/2000/svg">
<path d="M19.9703 40.0003C8.93316 39.991 -0.0140416 31.0078 1.65437e-05 19.9504C0.0140747 8.91631 9.00345 -0.0215229 20.0687 0.000345219C31.0981 0.0222134 40.0281 9.02097 40 20.0878C39.9719 31.0797 30.9903 40.0097 19.9703 40.0003ZM31.7354 30.1893C31.7354 27.6448 31.751 25.2003 31.7276 22.7573C31.7182 21.7982 31.7135 20.8235 31.5495 19.8832C31.1684 17.6995 30.0531 16.036 27.7898 15.4705C25.5249 14.9051 23.4958 15.2924 22.001 17.2871C21.965 17.3356 21.8807 17.3496 21.7057 17.4355V15.6486H16.9432V30.1815H21.7385C21.7385 29.8551 21.7385 29.5755 21.7385 29.2943C21.7385 26.9513 21.7323 24.6083 21.7448 22.2653C21.7464 21.8529 21.7729 21.4265 21.8776 21.0297C22.1884 19.8488 23.2896 19.046 24.4861 19.0772C25.7014 19.1084 26.4699 19.791 26.7448 21.1422C26.8369 21.5967 26.8713 22.07 26.8744 22.5355C26.8869 24.8004 26.8807 27.0653 26.8807 29.3302C26.8807 29.6083 26.8807 29.8863 26.8807 30.1925H31.7354V30.1893ZM9.37521 30.1753H14.1472V15.6564H9.37521V30.1753ZM11.7916 8.53049C10.1593 8.52581 9.04094 9.56142 9.04875 11.0688C9.05656 12.5371 10.1797 13.582 11.7448 13.5805C13.3193 13.5805 14.4783 12.5433 14.508 11.1109C14.5392 9.62546 13.3896 8.53362 11.7901 8.52893L11.7916 8.53049Z" fill="#1E1E1E"/>
</svg>
