<svg width="39" height="40" viewBox="0 0 39 40" fill="none" xmlns="http://www.w3.org/2000/svg">
<path d="M19.8917 39.9891C15.9676 40.0279 12.606 39.0696 9.5083 37.1514C9.03522 36.8595 8.62734 36.7958 8.09362 36.979C6.1073 37.6609 4.10431 38.2915 2.10586 38.9376C1.89662 39.0059 1.65098 39.1861 1.47054 38.9935C1.29162 38.804 1.47054 38.5555 1.54029 38.3412C2.17713 36.378 2.80183 34.4101 3.46596 32.4563C3.64033 31.9422 3.59939 31.5508 3.30372 31.0895C-1.98049 22.8577 -0.86148 12.2404 6.18615 5.52762C11.7281 0.248442 18.3391 -1.29384 25.5141 1.09181C32.7194 3.48677 37.2272 8.72712 38.645 16.378C40.7101 27.5219 33.5275 37.8597 22.6119 39.7701C21.6157 39.944 20.6089 40.0357 19.8932 39.9891H19.8917ZM25.3548 31.0413C28.6891 31.06 30.7588 29.2816 31.1152 26.489C31.1788 25.9889 31.2016 25.4919 30.6497 25.2201C29.2168 24.5134 27.7839 23.8083 26.3541 23.0954C25.6535 22.7459 25.1577 22.9882 24.7392 23.6048C24.3647 24.1562 23.9523 24.6812 23.549 25.2108C23.085 25.8212 22.5073 25.9594 21.8007 25.6736C18.4983 24.3379 16.051 22.0035 14.233 18.9236C13.91 18.3753 13.9995 17.8954 14.3937 17.4357C14.7773 16.9884 15.161 16.5426 15.5324 16.086C15.8842 15.6511 15.9722 15.1479 15.7644 14.6291C15.1579 13.1241 14.5332 11.6269 13.9115 10.1265C13.7796 9.80812 13.5946 9.48972 13.2444 9.43692C12.1739 9.27694 11.1019 9.25209 10.2543 10.0986C8.67131 11.6766 8.09968 13.6196 8.44084 15.8313C8.76987 17.9637 9.87978 19.7235 11.0958 21.4257C13.4385 24.7029 16.1617 27.5467 19.8341 29.2474C21.7401 30.1312 23.6869 30.9404 25.3548 31.0367V31.0413Z" fill="#D9D9D9"/>
</svg>
