<svg width="39" height="40" viewBox="0 0 39 40" fill="none" xmlns="http://www.w3.org/2000/svg">
<path d="M19.8917 39.9894C15.9676 40.0282 12.606 39.0699 9.5083 37.1517C9.03522 36.8598 8.62734 36.7961 8.09362 36.9793C6.1073 37.6612 4.10431 38.2918 2.10586 38.9379C1.89662 39.0062 1.65098 39.1864 1.47054 38.9938C1.29162 38.8043 1.47054 38.5558 1.54029 38.3415C2.17713 36.3783 2.80183 34.4104 3.46596 32.4566C3.64033 31.9425 3.59939 31.5511 3.30372 31.0898C-1.98049 22.858 -0.86148 12.2407 6.18615 5.52793C11.7281 0.248747 18.3391 -1.29354 25.5141 1.09211C32.7194 3.48708 37.2272 8.72743 38.645 16.3783C40.7101 27.5222 33.5275 37.86 22.6119 39.7704C21.6157 39.9443 20.6089 40.036 19.8932 39.9894H19.8917ZM25.3548 31.0416C28.6891 31.0603 30.7588 29.2819 31.1152 26.4893C31.1788 25.9892 31.2016 25.4922 30.6497 25.2204C29.2168 24.5137 27.7839 23.8086 26.3541 23.0957C25.6535 22.7462 25.1577 22.9885 24.7392 23.6051C24.3647 24.1565 23.9523 24.6815 23.549 25.2111C23.085 25.8215 22.5073 25.9597 21.8007 25.6739C18.4983 24.3382 16.051 22.0038 14.233 18.9239C13.91 18.3756 13.9995 17.8957 14.3937 17.436C14.7773 16.9887 15.161 16.5429 15.5324 16.0863C15.8842 15.6514 15.9722 15.1482 15.7644 14.6294C15.1579 13.1244 14.5332 11.6272 13.9115 10.1268C13.7796 9.80843 13.5946 9.49003 13.2444 9.43722C12.1739 9.27725 11.1019 9.2524 10.2543 10.0989C8.67131 11.6769 8.09968 13.6199 8.44084 15.8316C8.76987 17.9641 9.87978 19.7238 11.0958 21.426C13.4385 24.7032 16.1617 27.547 19.8341 29.2477C21.7401 30.1315 23.6869 30.9407 25.3548 31.037V31.0416Z" fill="#1E1E1E"/>
</svg>
